# xmcd CD database file
#
# Track frame offsets:
#	150
#	50743
#	93015
#	135734
#	184044
#	220643
#	256541
#
# Disc length: 4226 seconds
#
# Revision: 0
# Processed by: cddbd v1.5.1PL2 Copyright (c) Steve Scherf et al.
# Submitted via: CDex 1.51
#
DISCID=55108007
DTITLE=Miles Davis and Thelonius Monk - Miles Davis vs Thelonius Monk
DYEAR=1900
DGENRE=Jazz
TTITLE0=Bag's Groove 1
TTITLE1=Bag's Groove 2
TTITLE2=Bemsha Swing
TTITLE3=Swing Spring
TTITLE4=The Man I Love 1
TTITLE5=The Man I Love 2
TTITLE6=Walkin'
EXTD=
EXTT0=
EXTT1=
EXTT2=
EXTT3=
EXTT4=
EXTT5=
EXTT6=
PLAYORDER=
